# xmcd
#
# Track frame offsets: 
#        150
#        15443
#        34209
#        51006
#        67040
#        84560
#        101830
#        120049
#        135727
#        150889
#
# Disc length: 2228 seconds
#
# Revision: 0
# Processed by: cddbd v1.5.2PL0 Copyright (c) Steve Scherf et al.
# Submitted via: ExactAudioCopy v0.99pb4
#
DISCID=7208b20a
DTITLE=ยิ่งยง ยอดบัวงาม  อาภาพร นครสวรรค์ - แม่ฮ้างสาว...เฒ่าหัวงู
DYEAR=2008
DGENRE=Country
TTITLE0=แม่ฮ้างสาว...เฒ่าหัวงู
TTITLE1=กะเพราไก่ไข่ดาว
TTITLE2=ฉีดยาให้เมีย
TTITLE3=รักน้องออย
TTITLE4=คนขี้เหงาเฝ้าคอย
TTITLE5=รักสาวลำซิ่ง
TTITLE6=ยงโมติ๊ดเฮย(ยิ่งยงมาอีกแล้ว)
TTITLE7=แม่สะหลีล้านนา
TTITLE8=แอบรักคนมีเจ้าของ
TTITLE9=อีสานก็คน
EXTD=
EXTT0=
EXTT1=
EXTT2=
EXTT3=
EXTT4=
EXTT5=
EXTT6=
EXTT7=
EXTT8=
EXTT9=
PLAYORDER=
